<?xml version="1.0" standalone="no"?><!DOCTYPE svg PUBLIC "-//W3C//DTD SVG 1.1//EN" "http://www.w3.org/Graphics/SVG/1.1/DTD/svg11.dtd"><svg t="1740275368650" class="icon" viewBox="0 0 1024 1024" version="1.1" xmlns="http://www.w3.org/2000/svg" p-id="11148" xmlns:xlink="http://www.w3.org/1999/xlink" width="81" height="81"><path d="M957.1159405 499.364V213.8528c0-4.7736-0.0312-9.54719999-0.2496-14.352-1.9656-41.37120001-18.47040001-76.0344-49.45199999-103.39679999-27.8304-24.58560001-60.7464-36.192-97.87440001-36.19199998-171.0072 0.0936-341.9832 0.06239999-513.02159998 0.06239996-25.428 0-50.91839999-0.1248-76.37759998 0.12480001a127.92 127.92 0 0 0-54.53760003 12.04320001C108.7879405 99.03680001 78.5239405 144.30800001 78.33674051 207.17600002c-0.624 194.75039999-0.2184 389.5944-0.24959998 584.37599998 0 25.7088 5.3976 50.2008 18.43919999 72.44639999 28.86 49.0464 72.10320001 74.5992 128.98079999 74.69280001 194.688 0.3744 389.3448 0.18720001 584.03279999 0.0936 6.8952 0 13.88399999-0.31200001 20.74800001-1.27920001 49.2648-7.1448 85.89359999-32.75999998 109.88639999-76.19039998 12.16799999-22.02719998 17.004-45.95759999 16.9728-71.04240001-0.06239999-96.9696-0.0312-193.9704-0.0312-290.94000001M517.97594051 12.80000001h290.56559999c49.73279999 0 93.66239999 15.6936 130.94640001 48.82799999a186.4824 186.4824 0 0 1 61.52640001 110.5104c2.05920001 11.7 2.93279999 23.7432 2.96399999 35.66160001 0.156 194.4384 0.18720001 388.84559999 0.06239999 583.34639999-0.0312 60.528-23.1816 110.8224-69.32639999 150.072a183.26879999 183.26879999 0 0 1-98.436 42.8688 225.9192 225.9192 0 0 1-27.54960001 1.65359999c-194.0952 0.0936-388.1592 0.06239999-582.22319999 0.15600001-46.1448 0-87.5784-13.6032-123.48960001-42.6192-37.43999999-30.26400001-60.59039999-69.3576-68.85839999-116.84399999a203.5488 203.5488 0 0 1-2.9016-34.56960002C31.06874052 596.9576 31.06874052 402.02 31.16234053 207.0824c0.0312-56.2536 20.52959999-103.9896 61.43279998-142.584A184.7976 184.7976 0 0 1 198.08234051 14.73439999c9.67200001-1.248 19.53119998-1.872 29.29680001-1.87199998C324.25514049 12.7688 421.09994051 12.80000001 517.97594051 12.80000001" fill="#000000" p-id="11149"></path><path d="M767.1703405 818.1656a99.4656 99.4656 0 0 0 99.52800002-99.372 99.2472 99.2472 0 0 0-99.12240003-99.216 99.1224 99.1224 0 0 0-99.46559999 98.90400001 99.27840001 99.27840001 0 0 0 99.06 99.68399999z m-211.84799999-659.6304a7.3632 7.3632 0 0 1-0.15600001-0.8736c-11.4504 1.55999999-23.088 2.2464-34.32 4.8048-46.7688 10.54559999-81.8688 37.12799999-105.768 78.5616-78.46799999 135.90719999-156.93599999 271.8456-235.43520001 407.7216a32.38559999 32.38559999 0 0 1-4.05599997 5.928c-16.3488 17.8152-21.02879999 38.9064-17.03520002 62.2128 3.68159999 21.52800001 13.88399999 40.0608 27.14400001 57.00240001 24.3672 31.20000002 55.47360001 53.75759999 91.104 70.35599999 28.2048 13.1352 57.7512 21.3408 89.23200002 20.9664 20.3112-0.2808 39.62399999-4.368 56.69039999-16.0368 3.43199999-2.34 6.42719999-5.49119999 10.0152-7.4568a29.45279999 29.45279999 0 0 0 11.60639998-11.35680001c82.92960001-143.676 165.92160001-287.3208 248.78880003-431.05919999 19.90560001-34.44479999 26.4264-71.38560002 19.03199998-110.54160001A159.744 159.744 0 0 0 555.25994051 158.5352zM957.1159405 499.364l0.0312 290.9088c0.0312 25.116-4.80479999 49.0464-16.9728 71.04240001-24.02399999 43.4616-60.6216 69.108-109.91759999 76.1904a148.512 148.512 0 0 1-20.74800001 1.31039998c-194.6568 0.06239999-389.31359999 0.31200001-584.00159999-0.09359998-56.9088-0.0936-100.1208-25.64639999-128.98080001-74.724-13.04160001-22.24559999-18.40800001-46.70639999-18.40799999-72.44640001 0-194.7816-0.4056-389.5944 0.2184-584.37600002 0.18720001-62.868 30.42000002-108.108 87.2664-135.09599998a127.8264 127.8264 0 0 1 54.53760003-12.04319999c25.45919999-0.2496 50.9496-0.1248 76.37759998-0.12480002H809.5399405c37.1592 0 70.07519999 11.54400001 97.9056 36.12960001 30.9816 27.3624 47.48640001 62.0256 49.452 103.428 0.2184 4.7736 0.2496 9.5784 0.2496 14.352v285.5424z" fill="#FFFFFF" p-id="11150"></path><path d="M246.5359405 675.8936c-9.36 0.156-18.62639999 0.8736-27.33119999 4.68000001-11.6376 5.11679999-16.41120001 13.88399999-14.664 26.48879999 1.40400002 9.8904 5.5224 18.71999999 10.70160001 27.08159999 10.67040001 17.2536 24.7416 31.29360003 40.93440001 43.2432 29.76479999 22.0584 62.39999999 37.37759999 99.83999998 40.56 12.47999999 1.092 24.89759999 0.4056 36.41039999-5.30399999 9.98400001-4.8984 14.3208-13.3536 12.88560001-24.39840002-1.7784-13.8528-8.42400001-25.584-16.47359999-36.50399998-18.1272-24.39839999-41.83920001-42.0264-68.67120005-55.72320001-23.088-11.79359999-47.42400001-19.53119998-73.63199997-20.12399999m-0.9984-47.14320001c40.62239999 0.93600001 77.1264 13.6032 111.29040002 33.78960001 34.2888 20.27999999 63.1488 46.23840001 82.836 81.65039999l1.716-2.68319999c30.45119999-52.7592 60.83999999-105.51840001 91.32239999-158.2776 39.37439999-68.1408 78.56159999-136.37519999 118.12320001-204.3912 16.0992-27.64320001 21.3408-56.6904 13.79039997-87.8592-13.8528-57.40799999-72.4152-94.848-130.41599999-83.3664-34.63199999 6.864-60.528 25.9584-78.1248 56.47200001a1081507.5648 1081507.5648 0 0 0-210.5376 364.66559998M555.25994051 158.5664a159.744 159.744 0 0 1 156.87360002 130.22879999c7.3944 39.156 0.8736 76.06559999-19.032 110.54160001-82.8672 143.70720001-165.8592 287.35200001-248.75760003 431.02800001a29.2344 29.2344 0 0 1-11.60639998 11.35679999c-3.588 1.9968-6.5832 5.11679999-10.04640001 7.488-17.0664 11.6376-36.37919999 15.756-56.72160001 16.0056-31.44960001 0.3744-60.96479999-7.8312-89.23199998-20.9664-35.59919999-16.5984-66.70560001-39.156-91.04160001-70.3248-13.26-16.94160001-23.46240001-35.50559999-27.14400001-57.0336-3.9936-23.3064 0.624-44.36640001 17.03520001-62.244 1.55999999-1.716 2.80799999-3.80639999 4.0248-5.8656 78.4992-135.90719999 156.9984-271.8144 235.43520001-407.78399998 23.9304-41.4024 59.0304-67.95360001 105.76799996-78.49920003 11.2008-2.55839999 22.8696-3.276 34.32000002-4.8048l0.12480001 0.87360001M767.3575405 771.0536a52.2912 52.2912 0 1 0-0.12479999-104.61359999 52.6344 52.6344 0 0 0-52.2288 52.416 52.41600001 52.41600001 0 0 0 52.35359999 52.22879998m-0.1872 47.112a99.34079999 99.34079999 0 1 1 99.55920002-99.40319999 99.4968 99.4968 0 0 1-99.55920002 99.40319999" fill="#000000" p-id="11151"></path><path d="M245.50634049 628.75040001c8.42400001-14.53920001 16.47359999-28.5792 24.648-42.61920001 61.932-107.39039999 123.9264-214.71840001 185.88960002-322.04639999 17.5968-30.51360001 43.524-49.5768 78.15599999-56.47200001 57.96960001-11.48159998 116.532 25.9584 130.416 83.3664 7.5192 31.1688 2.2776 60.21599999-13.8216 87.8592-39.5304 68.016-78.7488 136.21920001-118.1232 204.3912-30.42000002 52.72799999-60.83999999 105.51840001-91.3224 158.2464-0.468 0.8424-0.9984 1.62239999-1.68479998 2.71439999-19.7184-35.44319999-48.5784-61.3704-82.86719999-81.65039999-34.13279999-20.1864-70.668-32.8536-111.29040003-33.78960001M246.5359405 675.8936c26.208 0.5928 50.54400001 8.3304 73.63199999 20.12399999 26.832 13.6968 50.54400001 31.3248 68.64000002 55.75440001 8.112 10.91999998 14.7264 22.61999999 16.5048 36.47279998 1.43519999 11.04479999-2.8704 19.5-12.88560001 24.42960002-11.54400001 5.67839999-23.9304 6.36479999-36.41039999 5.304-37.43999999-3.2136-70.07519999-18.53280001-99.83999998-40.59120001-16.224-11.9496-30.26400001-25.9896-40.93440001-43.2432-5.17920001-8.3616-9.29759999-17.1912-10.70160001-27.08159999-1.7472-12.6048 3.0264-21.372 14.664-26.4576 8.7048-3.8376 17.9712-4.55519999 27.33119999-4.7112M767.3575405 771.0536a52.41600001 52.41600001 0 0 1-52.35359999-52.1664 52.6344 52.6344 0 0 1 52.2288-52.416 52.2912 52.2912 0 1 1 0.12479999 104.61359999" fill="#FFFFFF" p-id="11152"></path></svg>